<svg xmlns="http://www.w3.org/2000/svg" viewBox="0 0 1200 420" preserveAspectRatio="xMidYMax slice"><defs>
<linearGradient id="s" x1="0" y1="0" x2="0" y2="1"><stop offset="0" stop-color="#9CB7D6"/><stop offset="1" stop-color="#C8DAEE"/></linearGradient>
<linearGradient id="g" x1="0" y1="0" x2="0" y2="1"><stop offset="0" stop-color="#86D29A"/><stop offset="1" stop-color="#3DA463"/></linearGradient>
<radialGradient id="l"><stop offset="0" stop-color="#fff" stop-opacity=".95"/><stop offset="1" stop-color="#fff" stop-opacity="0"/></radialGradient>
<pattern id="d" width="14" height="10" patternUnits="userSpaceOnUse"><circle cx="4" cy="5" r="2.3" fill="#fff" opacity=".6"/><circle cx="11" cy="2" r="1.6" fill="#E9A39A" opacity=".5"/></pattern>
<pattern id="m" width="90" height="420" patternUnits="userSpaceOnUse"><rect width="45" height="420" fill="#fff" opacity=".09"/></pattern></defs>
<path d="M0 235Q600 90 1200 235V420H0Z" fill="url(#s)"/><path d="M0 255Q600 125 1200 255V300Q600 190 0 300Z" fill="url(#d)"/>
<path d="M0 300Q600 190 1200 300V420H0Z" fill="#B3C8E0"/>
<ellipse cx="600" cy="410" rx="780" ry="170" fill="url(#g)"/><ellipse cx="600" cy="410" rx="780" ry="170" fill="url(#m)"/>
<path d="M578 292H622L662 420H538Z" fill="#E7D5A6"/><path d="M570 335H630M556 392H644" stroke="#fff" stroke-width="3" opacity=".8"/>
<g fill="#FFF8E8"><rect x="592" y="282" width="4" height="22" rx="2"/><rect x="598" y="282" width="4" height="22" rx="2"/><rect x="604" y="282" width="4" height="22" rx="2"/></g>
<g fill="#8FA5BD"><rect x="116" y="70" width="8" height="190"/><rect x="1076" y="70" width="8" height="190"/></g>
<g fill="#E3ECF6"><rect x="92" y="50" width="56" height="26" rx="5"/><rect x="1052" y="50" width="56" height="26" rx="5"/></g>
<circle cx="120" cy="62" r="70" fill="url(#l)"/><circle cx="1080" cy="62" r="70" fill="url(#l)"/></svg>
